<svg xmlns="http://www.w3.org/2000/svg" viewBox="0 0 119.9 119.9"><title>icon</title><path d="M8.3,0H111.6a8.28,8.28,0,0,1,8.3,8.3V111.6a8.28,8.28,0,0,1-8.3,8.3H8.3A8.28,8.28,0,0,1,0,111.6V8.3A8.28,8.28,0,0,1,8.3,0Z" fill="#16161e"/><g style="isolation:isolate"><path d="M22,12.5l-.5,1.2a5.87,5.87,0,0,0-2.3-.4c-1.5,0-2.3.5-2.3,1.7v2h3.6l-.2,1.2h-3.5v8h-1.7v-8h-2.5V17h2.6V15c0-1.8,1.7-3,3.9-3A5.57,5.57,0,0,1,22,12.5Z" fill="#09c295"/><path d="M28.53,25.1a3.59,3.59,0,0,0,2.9-1.6V16.2h1.7v10h-1.5l-.1-1.3a4.58,4.58,0,0,1-3.4,1.6c-2.1,0-3.1-1.1-3.1-2.9V16.3h1.7v7.1C26.73,24.5,27.23,25.1,28.53,25.1Z" fill="#09c295"/><path d="M38.63,16.2l.1,1.4a5,5,0,0,1,3.5-1.6c2.1,0,3,1.1,3,3v7.2h-1.6V20.1c0-2-.2-2.9-1.8-2.9a3.63,3.63,0,0,0-2.9,1.7v7.3h-1.7v-10Z" fill="#09c295"/><path d="M57,24l.8,1.1a6.47,6.47,0,0,1-3.6,1.2c-3.2,0-5-2-5-5.2,0-3,1.8-5.2,5-5.2a5.58,5.58,0,0,1,3.6,1.2l-.9,1.1a4.9,4.9,0,0,0-2.8-.9c-1.9,0-3.2,1.3-3.2,3.9s1.3,3.8,3.2,3.8A4.62,4.62,0,0,0,57,24Z" fill="#09c295"/><path d="M67.23,26.3c-2.3,0-3.6-1.2-3.6-3v-6h-2.5V16.1h2.5V13.8l1.7-.2v2.5H69l-.2,1.2h-3.5v5.9c0,1.1.6,1.7,2.1,1.7a4.65,4.65,0,0,0,2.1-.5l.7,1.1A5.42,5.42,0,0,1,67.23,26.3Z" fill="#09c295"/><path d="M82.23,24.9v1.2h-8V24.9h3.3V17.4h-3.2V16.2h4.9v8.7Zm-3.1-12.3a1.2,1.2,0,1,1-1.2-1.1A1.13,1.13,0,0,1,79.13,12.6Z" fill="#09c295"/><path d="M94.63,21.1c0,3-1.6,5.2-4.6,5.2s-4.6-2-4.6-5.2S87,15.9,90,15.9,94.63,18,94.63,21.1Zm-7.4,0c0,2.7.9,3.9,2.8,3.9s2.8-1.2,2.8-3.9-.9-3.9-2.8-3.9S87.23,18.5,87.23,21.1Z" fill="#09c295"/><path d="M99.63,16.2l.1,1.4a5,5,0,0,1,3.5-1.6c2.1,0,3,1.1,3,3v7.2h-1.6V20.1c0-2-.2-2.9-1.8-2.9a3.63,3.63,0,0,0-2.9,1.7v7.3h-1.7v-10Z" fill="#09c295"/></g><g style="isolation:isolate"><path d="M22,30.2l-.5,1.2a5.87,5.87,0,0,0-2.3-.4c-1.5,0-2.3.5-2.3,1.7v2h3.6l-.2,1.2h-3.5v8h-1.7v-8h-2.5V34.7h2.6v-2c0-1.8,1.7-3,3.9-3A8.81,8.81,0,0,1,22,30.2Z" fill="#7aa2f7"/><path d="M28.53,42.8a3.59,3.59,0,0,0,2.9-1.6V33.9h1.7v10h-1.5l-.1-1.3a4.58,4.58,0,0,1-3.4,1.6c-2.1,0-3.1-1.1-3.1-2.9V34h1.7v7C26.73,42.3,27.23,42.8,28.53,42.8Z" fill="#7aa2f7"/><path d="M38.63,33.9l.1,1.4a5,5,0,0,1,3.5-1.6c2.1,0,3,1.1,3,3v7.2h-1.6V37.8c0-2-.2-2.9-1.8-2.9a3.63,3.63,0,0,0-2.9,1.7v7.3h-1.7v-10Z" fill="#7aa2f7"/><path d="M57,41.8l.8,1.1a6.47,6.47,0,0,1-3.6,1.2c-3.2,0-5-2-5-5.2,0-3,1.8-5.2,5-5.2a5.58,5.58,0,0,1,3.6,1.2l-.9,1.1a4.9,4.9,0,0,0-2.8-.9c-1.9,0-3.2,1.3-3.2,3.9s1.3,3.8,3.2,3.8A5.3,5.3,0,0,0,57,41.8Z" fill="#7aa2f7"/><path d="M67.23,44.1c-2.3,0-3.6-1.2-3.6-3v-6h-2.5V33.9h2.5V31.6l1.7-.2v2.5H69l-.2,1.2h-3.5V41c0,1.1.6,1.7,2.1,1.7a4.65,4.65,0,0,0,2.1-.5l.7,1.1A6.41,6.41,0,0,1,67.23,44.1Z" fill="#7aa2f7"/><path d="M82.23,42.6v1.2h-8V42.6h3.3V35.1h-3.2V33.9h4.9v8.7Zm-3.1-12.3a1.2,1.2,0,1,1-1.2-1.1A1.13,1.13,0,0,1,79.13,30.3Z" fill="#7aa2f7"/><path d="M94.63,38.9c0,3-1.6,5.2-4.6,5.2s-4.6-2-4.6-5.2S87,33.7,90,33.7,94.63,35.7,94.63,38.9Zm-7.4,0c0,2.7.9,3.9,2.8,3.9s2.8-1.2,2.8-3.9S91.93,35,90,35,87.23,36.2,87.23,38.9Z" fill="#7aa2f7"/><path d="M99.63,33.9l.1,1.4a5,5,0,0,1,3.5-1.6c2.1,0,3,1.1,3,3v7.2h-1.6V37.8c0-2-.2-2.9-1.8-2.9a3.63,3.63,0,0,0-2.9,1.7v7.3h-1.7v-10Z" fill="#7aa2f7"/></g><g style="isolation:isolate"><path d="M22,46.4l-.5,1.2a5.87,5.87,0,0,0-2.3-.4c-1.5,0-2.3.5-2.3,1.7v2h3.6l-.2,1.1h-3.5v8h-1.7V52h-2.5V50.8h2.6v-2c0-1.8,1.7-3,3.9-3A6.84,6.84,0,0,1,22,46.4Z" fill="#bb9af7"/><path d="M28.53,58.9a3.59,3.59,0,0,0,2.9-1.6V50h1.7V60h-1.5l-.1-1.3a4.58,4.58,0,0,1-3.4,1.6c-2.1,0-3.1-1.1-3.1-2.9V50h1.7v7.1C26.73,58.4,27.23,58.9,28.53,58.9Z" fill="#bb9af7"/><path d="M38.63,50l.1,1.4a5,5,0,0,1,3.5-1.6c2.1,0,3,1.1,3,3V60h-1.6V53.9c0-2-.2-2.9-1.8-2.9a3.63,3.63,0,0,0-2.9,1.7V60h-1.7V50Z" fill="#bb9af7"/><path d="M57,57.9l.8,1.1a6.47,6.47,0,0,1-3.6,1.2c-3.2,0-5-2-5-5.2,0-3,1.8-5.2,5-5.2a5.58,5.58,0,0,1,3.6,1.2l-.9,1.1a4.9,4.9,0,0,0-2.8-.9c-1.9,0-3.2,1.3-3.2,3.9s1.3,3.8,3.2,3.8A4.62,4.62,0,0,0,57,57.9Z" fill="#bb9af7"/><path d="M67.23,60.2c-2.3,0-3.6-1.2-3.6-3v-6h-2.5V50h2.5V47.7l1.7-.2V50H69l-.2,1.2h-3.5v5.9c0,1.1.6,1.7,2.1,1.7a4.65,4.65,0,0,0,2.1-.5l.7,1.1A6.41,6.41,0,0,1,67.23,60.2Z" fill="#bb9af7"/><path d="M82.23,58.7V60h-8V58.8h3.3V51.3h-3.2V50h4.9v8.7Zm-3.1-12.2a1.2,1.2,0,1,1-1.2-1.1A1.08,1.08,0,0,1,79.13,46.5Z" fill="#bb9af7"/><path d="M94.63,55c0,3-1.6,5.2-4.6,5.2s-4.6-2-4.6-5.2S87,49.8,90,49.8,94.63,51.8,94.63,55Zm-7.4,0c0,2.7.9,3.9,2.8,3.9s2.8-1.2,2.8-3.9-.9-3.9-2.8-3.9S87.23,52.3,87.23,55Z" fill="#bb9af7"/><path d="M99.63,50l.1,1.4a5,5,0,0,1,3.5-1.6c2.1,0,3,1.1,3,3V60h-1.6V53.9c0-2-.2-2.9-1.8-2.9a3.63,3.63,0,0,0-2.9,1.7V60h-1.7V50Z" fill="#bb9af7"/></g><g style="isolation:isolate"><path d="M22,62.5l-.5,1.2a5.87,5.87,0,0,0-2.3-.4c-1.5,0-2.3.5-2.3,1.7v2h3.6l-.2,1.2h-3.5v8h-1.7v-8h-2.5V67h2.6V65c0-1.8,1.7-3,3.9-3A5.57,5.57,0,0,1,22,62.5Z" fill="#f7768e"/><path d="M28.53,75.1a3.59,3.59,0,0,0,2.9-1.6V66.2h1.7v10h-1.5l-.1-1.3a4.58,4.58,0,0,1-3.4,1.6c-2.1,0-3.1-1.1-3.1-2.9V66.3h1.7v7.1C26.73,74.5,27.23,75.1,28.53,75.1Z" fill="#f7768e"/><path d="M38.63,66.2l.1,1.4a5,5,0,0,1,3.5-1.6c2.1,0,3,1.1,3,3v7.2h-1.6V70.1c0-2-.2-2.9-1.8-2.9a3.63,3.63,0,0,0-2.9,1.7v7.3h-1.7v-10Z" fill="#f7768e"/><path d="M57,74l.8,1.1a6.47,6.47,0,0,1-3.6,1.2c-3.2,0-5-2-5-5.2,0-3,1.8-5.2,5-5.2a5.58,5.58,0,0,1,3.6,1.2l-.9,1.1a4.9,4.9,0,0,0-2.8-.9c-1.9,0-3.2,1.3-3.2,3.9s1.3,3.8,3.2,3.8A4.62,4.62,0,0,0,57,74Z" fill="#f7768e"/><path d="M67.23,76.3c-2.3,0-3.6-1.2-3.6-3v-6h-2.5V66.1h2.5V63.8l1.7-.2v2.5H69l-.2,1.2h-3.5v5.9c0,1.1.6,1.7,2.1,1.7a4.65,4.65,0,0,0,2.1-.5l.7,1.1A5.42,5.42,0,0,1,67.23,76.3Z" fill="#f7768e"/><path d="M82.23,74.9v1.2h-8V74.9h3.3V67.4h-3.2V66.2h4.9v8.7Zm-3.1-12.3a1.2,1.2,0,1,1-1.2-1.1A1.13,1.13,0,0,1,79.13,62.6Z" fill="#f7768e"/><path d="M94.63,71.1c0,3-1.6,5.2-4.6,5.2s-4.6-2-4.6-5.2S87,65.9,90,65.9,94.63,68,94.63,71.1Zm-7.4,0c0,2.7.9,3.9,2.8,3.9s2.8-1.2,2.8-3.9-.9-3.9-2.8-3.9S87.23,68.5,87.23,71.1Z" fill="#f7768e"/><path d="M99.63,66.2l.1,1.4a5,5,0,0,1,3.5-1.6c2.1,0,3,1.1,3,3v7.2h-1.6V70.1c0-2-.2-2.9-1.8-2.9a3.63,3.63,0,0,0-2.9,1.7v7.3h-1.7v-10Z" fill="#f7768e"/></g><g style="isolation:isolate"><path d="M22,78.6l-.5,1.2a5.87,5.87,0,0,0-2.3-.4c-1.5,0-2.3.5-2.3,1.7v2h3.6l-.2,1.2h-3.5v8h-1.7v-8h-2.5V83h2.6V81c0-1.8,1.7-3,3.9-3A12.39,12.39,0,0,1,22,78.6Z" fill="#ff9e64"/><path d="M28.53,91.2a3.59,3.59,0,0,0,2.9-1.6V82.3h1.7v10h-1.5l-.1-1.3a4.58,4.58,0,0,1-3.4,1.6c-2.1,0-3.1-1.1-3.1-2.9V82.4h1.7v7.1C26.73,90.7,27.23,91.2,28.53,91.2Z" fill="#ff9e64"/><path d="M38.63,82.3l.1,1.4a5,5,0,0,1,3.5-1.6c2.1,0,3,1.1,3,3v7.2h-1.6V86.2c0-2-.2-2.9-1.8-2.9a3.63,3.63,0,0,0-2.9,1.7v7.3h-1.7v-10Z" fill="#ff9e64"/><path d="M57,90.2l.8,1.1a6.47,6.47,0,0,1-3.6,1.2c-3.2,0-5-2-5-5.2,0-3,1.8-5.2,5-5.2a5.58,5.58,0,0,1,3.6,1.2l-.9,1.1a4.9,4.9,0,0,0-2.8-.9c-1.9,0-3.2,1.3-3.2,3.9s1.3,3.8,3.2,3.8A6.24,6.24,0,0,0,57,90.2Z" fill="#ff9e64"/><path d="M67.23,92.5c-2.3,0-3.6-1.2-3.6-3v-6h-2.5V82.3h2.5V80l1.7-.2v2.5H69l-.2,1.2h-3.5v5.9c0,1.1.6,1.7,2.1,1.7a4.65,4.65,0,0,0,2.1-.5l.7,1.1A6.41,6.41,0,0,1,67.23,92.5Z" fill="#ff9e64"/><path d="M82.23,91v1.2h-8V91h3.3V83.5h-3.2V82.3h4.9V91Zm-3.1-12.3a1.2,1.2,0,1,1-1.2-1.1A1.13,1.13,0,0,1,79.13,78.7Z" fill="#ff9e64"/><path d="M94.63,87.2c0,3-1.6,5.2-4.6,5.2s-4.6-2-4.6-5.2S87,82,90,82,94.63,84.1,94.63,87.2Zm-7.4.1c0,2.7.9,3.9,2.8,3.9s2.8-1.2,2.8-3.9-.9-3.9-2.8-3.9S87.23,84.6,87.23,87.3Z" fill="#ff9e64"/><path d="M99.63,82.3l.1,1.4a5,5,0,0,1,3.5-1.6c2.1,0,3,1.1,3,3v7.2h-1.6V86.2c0-2-.2-2.9-1.8-2.9a3.63,3.63,0,0,0-2.9,1.7v7.3h-1.7v-10Z" fill="#ff9e64"/></g><g style="isolation:isolate"><path d="M22,94.7l-.5,1.2a5.87,5.87,0,0,0-2.3-.4c-1.5,0-2.3.5-2.3,1.7v2h3.6l-.2,1.2h-3.5v8h-1.7v-8h-2.5V99.2h2.6v-2c0-1.8,1.7-3,3.9-3A8.81,8.81,0,0,1,22,94.7Z" fill="#ce9c3d"/><path d="M28.53,107.3a3.59,3.59,0,0,0,2.9-1.6V98.4h1.7v10h-1.5l-.1-1.3a4.58,4.58,0,0,1-3.4,1.6c-2.1,0-3.1-1.1-3.1-2.9V98.5h1.7v7.1C26.73,106.8,27.23,107.3,28.53,107.3Z" fill="#ce9c3d"/><path d="M38.63,98.4l.1,1.4a5,5,0,0,1,3.5-1.6c2.1,0,3,1.1,3,3v7.2h-1.6v-6.1c0-2-.2-2.9-1.8-2.9a3.63,3.63,0,0,0-2.9,1.7v7.3h-1.7v-10Z" fill="#ce9c3d"/><path d="M57,106.3l.8,1.1a6.47,6.47,0,0,1-3.6,1.2c-3.2,0-5-2-5-5.2,0-3,1.8-5.2,5-5.2a5.58,5.58,0,0,1,3.6,1.2l-.9,1.1a4.9,4.9,0,0,0-2.8-.9c-1.9,0-3.2,1.3-3.2,3.9s1.3,3.8,3.2,3.8A5.3,5.3,0,0,0,57,106.3Z" fill="#ce9c3d"/><path d="M67.23,108.6c-2.3,0-3.6-1.2-3.6-3v-6h-2.5V98.4h2.5V96.1l1.7-.2v2.5H69l-.2,1.2h-3.5v5.9c0,1.1.6,1.7,2.1,1.7a4.65,4.65,0,0,0,2.1-.5l.7,1.1A6.41,6.41,0,0,1,67.23,108.6Z" fill="#ce9c3d"/><path d="M82.23,107.1v1.2h-8v-1.2h3.3V99.6h-3.2V98.4h4.9v8.7Zm-3.1-12.2a1.2,1.2,0,1,1-1.2-1.1A1,1,0,0,1,79.13,94.9Z" fill="#ce9c3d"/><path d="M94.63,103.4c0,3-1.6,5.2-4.6,5.2s-4.6-2-4.6-5.2S87,98.2,90,98.2,94.63,100.2,94.63,103.4Zm-7.4,0c0,2.7.9,3.9,2.8,3.9s2.8-1.2,2.8-3.9-.9-3.9-2.8-3.9S87.23,100.7,87.23,103.4Z" fill="#ce9c3d"/><path d="M99.63,98.4l.1,1.4a5,5,0,0,1,3.5-1.6c2.1,0,3,1.1,3,3v7.2h-1.6v-6.1c0-2-.2-2.9-1.8-2.9a3.63,3.63,0,0,0-2.9,1.7v7.3h-1.7v-10Z" fill="#ce9c3d"/></g><rect x="10.9" y="94.2" width="101.09" height="18.82" fill="#16161e"/><rect x="67.13" y="23.24" width="3.11" height="5.96" fill="#16161e"/><path d="M93.44,88.6h-.51l-.06-.06a37.4,37.4,0,0,1-8.81-10.27,10.41,10.41,0,0,0-.69-1,11.06,11.06,0,0,0-.49-1L82.76,76a11.57,11.57,0,0,0,.85-4.37V69.2a11.7,11.7,0,0,0-6.33-10.38A11.57,11.57,0,0,0,77.63,56V53.65a11.62,11.62,0,0,0-2.4-7.07V43.33a11.63,11.63,0,0,0-3.58-8.26V33.32a11.7,11.7,0,0,0-23.4,0v1.77a11.65,11.65,0,0,0-3.56,8.25v3.21a11.64,11.64,0,0,0-2.42,7.1V56a11.57,11.57,0,0,0,.35,2.78A11.7,11.7,0,0,0,36.29,69.2v2.39a11.73,11.73,0,0,0,.86,4.4c-.1.21-.21.42-.31.64l-.21.47a10.88,10.88,0,0,0-.79,1.17A37.4,37.4,0,0,1,27,88.54L27,88.6h-.51a11.7,11.7,0,0,0-11.69,11.69v2.39a11.71,11.71,0,0,0,11.69,11.7h67a11.71,11.71,0,0,0,11.69-11.7v-2.39A11.7,11.7,0,0,0,93.44,88.6Z" fill="#16161e"/><rect x="25.27" y="99.1" width="69.37" height="4.78" rx="1.2" fill="#c0caf5"/><path d="M57.56,87.14V96.7h4.78V87.14c8.37,0,15.55,9.56,15.55,9.56h8.37A47.89,47.89,0,0,1,75,83.55H62.34V81.16H73.63c-.43-.81-.84-1.59-1.19-2.4H62.34V76.37h8.85C70.61,75.18,70,74,69.52,72.78h2.39a1.19,1.19,0,0,0,1.2-1.19V69.2a1.2,1.2,0,0,0-1.2-1.2H67.13c-.89-2.77-1.69-5.6-2.4-8.37H55.17c-.7,2.77-1.5,5.6-2.4,8.37H48a1.2,1.2,0,0,0-1.2,1.2v2.39A1.19,1.19,0,0,0,48,72.78h2.39c-.52,1.2-1.09,2.4-1.67,3.59h8.85v2.39H47.51c-.4.81-.81,1.59-1.19,2.4H57.56v2.39H44.92A47.89,47.89,0,0,1,33.64,96.7H42S49.19,87.14,57.56,87.14Z" fill="#c0caf5"/><rect x="52.77" y="52.45" width="14.35" height="4.78" rx="1.2" fill="#c0caf5"/><path d="M61.15,37.12v-3.8a1.2,1.2,0,1,0-2.4,0v3.8A3.42,3.42,0,0,1,61.15,37.12Z" fill="#c0caf5"/><path d="M56.36,47.67h1.4c-.14.78-.3,1.58-.47,2.39h5.32c-.17-.81-.33-1.61-.47-2.39h1.4a1.19,1.19,0,0,0,1.19-1.2v-3a1.16,1.16,0,0,0-.46-.93l-3.59-3a1.2,1.2,0,0,0-1.44,0l-3.58,3a1.17,1.17,0,0,0-.47.93v3A1.2,1.2,0,0,0,56.36,47.67Z" fill="#c0caf5"/></svg>